<mxfile host="app.diagrams.net" modified="2024-02-09T13:34:13.196Z" agent="Mozilla/5.0 (Windows NT 10.0; Win64; x64) AppleWebKit/537.36 (KHTML, like Gecko) Chrome/121.0.0.0 Safari/537.36" etag="JuAI7Agjrzx99fl6WcXM" version="23.1.2" type="github">
  <diagram name="Sayfa -1" id="zcthlye-IQYtZVJmmcgu">
    <mxGraphModel dx="1050" dy="565" grid="1" gridSize="10" guides="1" tooltips="1" connect="1" arrows="1" fold="1" page="1" pageScale="1" pageWidth="827" pageHeight="1169" math="0" shadow="0">
      <root>
        <mxCell id="0" />
        <mxCell id="1" parent="0" />
        <mxCell id="hQ6hzKVhqoDw_ul2EuZ2-2" value="BLOG PROJECT N-TIER ARCHITECTURE" style="swimlane;startSize=20;horizontal=1;containerType=tree;" vertex="1" parent="1">
          <mxGeometry x="60" y="80" width="690" height="310" as="geometry" />
        </mxCell>
        <mxCell id="hQ6hzKVhqoDw_ul2EuZ2-7" value="&lt;font style=&quot;&quot;&gt;&lt;span style=&quot;font-size: 14px;&quot;&gt;Asp.Net Core Mvc&lt;/span&gt;&lt;br&gt;&lt;font style=&quot;font-size: 12px;&quot;&gt;Controllers,Models,Views&lt;br&gt;&lt;/font&gt;Areas&lt;br&gt;ViewComponents&lt;br&gt;&lt;/font&gt;" style="ellipse;whiteSpace=wrap;html=1;align=center;treeFolding=1;treeMoving=1;newEdgeStyle={&quot;edgeStyle&quot;:&quot;entityRelationEdgeStyle&quot;,&quot;startArrow&quot;:&quot;none&quot;,&quot;endArrow&quot;:&quot;none&quot;,&quot;segment&quot;:10,&quot;curved&quot;:1,&quot;sourcePerimeterSpacing&quot;:0,&quot;targetPerimeterSpacing&quot;:0};" vertex="1" parent="hQ6hzKVhqoDw_ul2EuZ2-2">
          <mxGeometry x="30" y="40" width="170" height="82.5" as="geometry" />
        </mxCell>
        <mxCell id="hQ6hzKVhqoDw_ul2EuZ2-8" value="&lt;font style=&quot;font-size: 14px;&quot;&gt;Business Layer&lt;/font&gt;&lt;br&gt;Repository Services&lt;br&gt;Fluent Validation" style="whiteSpace=wrap;html=1;rounded=1;arcSize=50;align=center;verticalAlign=middle;strokeWidth=1;autosize=1;spacing=4;treeFolding=1;treeMoving=1;newEdgeStyle={&quot;edgeStyle&quot;:&quot;entityRelationEdgeStyle&quot;,&quot;startArrow&quot;:&quot;none&quot;,&quot;endArrow&quot;:&quot;none&quot;,&quot;segment&quot;:10,&quot;curved&quot;:1,&quot;sourcePerimeterSpacing&quot;:0,&quot;targetPerimeterSpacing&quot;:0};" vertex="1" parent="hQ6hzKVhqoDw_ul2EuZ2-2">
          <mxGeometry x="280" y="43.75" width="170" height="75" as="geometry" />
        </mxCell>
        <mxCell id="hQ6hzKVhqoDw_ul2EuZ2-21" value="" style="endArrow=classic;html=1;rounded=0;exitX=1;exitY=0.5;exitDx=0;exitDy=0;entryX=0;entryY=0.5;entryDx=0;entryDy=0;" edge="1" parent="hQ6hzKVhqoDw_ul2EuZ2-2" source="hQ6hzKVhqoDw_ul2EuZ2-7" target="hQ6hzKVhqoDw_ul2EuZ2-8">
          <mxGeometry width="50" height="50" relative="1" as="geometry">
            <mxPoint x="60" y="200" as="sourcePoint" />
            <mxPoint x="240" y="60" as="targetPoint" />
          </mxGeometry>
        </mxCell>
        <mxCell id="hQ6hzKVhqoDw_ul2EuZ2-22" value="&lt;font style=&quot;font-size: 14px;&quot;&gt;DataAccess Layer&lt;/font&gt;&lt;br&gt;Generic Repository Pattern&lt;br&gt;Migrations, Contexts&lt;br&gt;EntityFrameworkCore" style="whiteSpace=wrap;html=1;rounded=1;arcSize=50;align=center;verticalAlign=middle;strokeWidth=1;autosize=1;spacing=4;treeFolding=1;treeMoving=1;newEdgeStyle={&quot;edgeStyle&quot;:&quot;entityRelationEdgeStyle&quot;,&quot;startArrow&quot;:&quot;none&quot;,&quot;endArrow&quot;:&quot;none&quot;,&quot;segment&quot;:10,&quot;curved&quot;:1,&quot;sourcePerimeterSpacing&quot;:0,&quot;targetPerimeterSpacing&quot;:0};" vertex="1" parent="hQ6hzKVhqoDw_ul2EuZ2-2">
          <mxGeometry x="270" y="170" width="190" height="80" as="geometry" />
        </mxCell>
        <mxCell id="hQ6hzKVhqoDw_ul2EuZ2-26" value="" style="endArrow=classic;html=1;rounded=0;exitX=0.5;exitY=1;exitDx=0;exitDy=0;entryX=0.5;entryY=0;entryDx=0;entryDy=0;" edge="1" parent="hQ6hzKVhqoDw_ul2EuZ2-2" source="hQ6hzKVhqoDw_ul2EuZ2-8" target="hQ6hzKVhqoDw_ul2EuZ2-22">
          <mxGeometry width="50" height="50" relative="1" as="geometry">
            <mxPoint x="317.5" y="95" as="sourcePoint" />
            <mxPoint x="140" y="140" as="targetPoint" />
          </mxGeometry>
        </mxCell>
        <mxCell id="hQ6hzKVhqoDw_ul2EuZ2-27" value="&lt;font style=&quot;font-size: 14px;&quot;&gt;Entity Layer&lt;/font&gt;&lt;br&gt;Entities" style="whiteSpace=wrap;html=1;rounded=1;arcSize=50;align=center;verticalAlign=middle;strokeWidth=1;autosize=1;spacing=4;treeFolding=1;treeMoving=1;newEdgeStyle={&quot;edgeStyle&quot;:&quot;entityRelationEdgeStyle&quot;,&quot;startArrow&quot;:&quot;none&quot;,&quot;endArrow&quot;:&quot;none&quot;,&quot;segment&quot;:10,&quot;curved&quot;:1,&quot;sourcePerimeterSpacing&quot;:0,&quot;targetPerimeterSpacing&quot;:0};" vertex="1" parent="hQ6hzKVhqoDw_ul2EuZ2-2">
          <mxGeometry x="510" y="168.75" width="170" height="82.5" as="geometry" />
        </mxCell>
        <mxCell id="hQ6hzKVhqoDw_ul2EuZ2-28" value="" style="endArrow=classic;html=1;rounded=0;exitX=1;exitY=0.5;exitDx=0;exitDy=0;entryX=0;entryY=0.5;entryDx=0;entryDy=0;" edge="1" parent="hQ6hzKVhqoDw_ul2EuZ2-2" source="hQ6hzKVhqoDw_ul2EuZ2-22" target="hQ6hzKVhqoDw_ul2EuZ2-27">
          <mxGeometry width="50" height="50" relative="1" as="geometry">
            <mxPoint x="420" y="280" as="sourcePoint" />
            <mxPoint x="450" y="175" as="targetPoint" />
          </mxGeometry>
        </mxCell>
        <mxCell id="hQ6hzKVhqoDw_ul2EuZ2-30" value="&lt;span style=&quot;font-size: 14px;&quot;&gt;Asp.Net Core Category API&lt;/span&gt;&lt;br&gt;&lt;font style=&quot;font-size: 12px;&quot;&gt;Controllers&lt;br&gt;&lt;/font&gt;Migrations&lt;br&gt;" style="whiteSpace=wrap;html=1;rounded=1;arcSize=50;align=center;verticalAlign=middle;strokeWidth=1;autosize=1;spacing=4;treeFolding=1;treeMoving=1;newEdgeStyle={&quot;edgeStyle&quot;:&quot;entityRelationEdgeStyle&quot;,&quot;startArrow&quot;:&quot;none&quot;,&quot;endArrow&quot;:&quot;none&quot;,&quot;segment&quot;:10,&quot;curved&quot;:1,&quot;sourcePerimeterSpacing&quot;:0,&quot;targetPerimeterSpacing&quot;:0};" vertex="1" parent="hQ6hzKVhqoDw_ul2EuZ2-2">
          <mxGeometry x="30" y="165" width="170" height="85" as="geometry" />
        </mxCell>
        <mxCell id="hQ6hzKVhqoDw_ul2EuZ2-31" value="" style="endArrow=classic;html=1;rounded=0;exitX=0.5;exitY=1;exitDx=0;exitDy=0;entryX=0.5;entryY=0;entryDx=0;entryDy=0;" edge="1" parent="hQ6hzKVhqoDw_ul2EuZ2-2" source="hQ6hzKVhqoDw_ul2EuZ2-7" target="hQ6hzKVhqoDw_ul2EuZ2-30">
          <mxGeometry width="50" height="50" relative="1" as="geometry">
            <mxPoint x="240" y="170" as="sourcePoint" />
            <mxPoint x="180" y="140" as="targetPoint" />
            <Array as="points" />
          </mxGeometry>
        </mxCell>
      </root>
    </mxGraphModel>
  </diagram>
</mxfile>
